0
SECTION
2
HEADER
9
$INSUNITS
70
4
9
$ACADVER
1
AC1014
9
$HANDSEED
5
FFFF
0
ENDSEC
0
SECTION
2
TABLES
0
TABLE
2
VPORT
5
8
100
AcDbSymbolTable
0
ENDTAB
0
TABLE
2
LTYPE
5
5
100
AcDbSymbolTable
0
LTYPE
5
14
100
AcDbSymbolTableRecord
100
AcDbLinetypeTableRecord
2
BYBLOCK
70
0
0
LTYPE
5
15
100
AcDbSymbolTableRecord
100
AcDbLinetypeTableRecord
2
BYLAYER
70
0
0
ENDTAB
0
TABLE
2
LAYER
5
2
100
AcDbSymbolTable
70
2
0
LAYER
5
50
100
AcDbSymbolTableRecord
100
AcDbLayerTableRecord
2
0
70
0
6
CONTINUOUS
0
ENDTAB
0
TABLE
2
STYLE
5
3
100
AcDbSymbolTable
70
1
0
STYLE
5
11
100
AcDbSymbolTableRecord
100
AcDbTextStyleTableRecord
2
STANDARD
70
0
0
ENDTAB
0
TABLE
2
VIEW
5
6
100
AcDbSymbolTable
70
0
0
ENDTAB
0
TABLE
2
UCS
5
7
100
AcDbSymbolTable
70
0
0
ENDTAB
0
TABLE
2
APPID
5
9
100
AcDbSymbolTable
70
2
0
APPID
5
12
100
AcDbSymbolTableRecord
100
AcDbRegAppTableRecord
2
ACAD
70
0
0
ENDTAB
0
TABLE
2
DIMSTYLE
5
A
100
AcDbSymbolTable
70
1
0
ENDTAB
0
TABLE
2
BLOCK_RECORD
5
1
100
AcDbSymbolTable
70
1
0
BLOCK_RECORD
5
1F
100
AcDbSymbolTableRecord
100
AcDbBlockTableRecord
2
*MODEL_SPACE
0
BLOCK_RECORD
5
1B
100
AcDbSymbolTableRecord
100
AcDbBlockTableRecord
2
*PAPER_SPACE
0
ENDTAB
0
ENDSEC
0
SECTION
2
BLOCKS
0
BLOCK
5
20
100
AcDbEntity
100
AcDbBlockBegin
2
*MODEL_SPACE
0
ENDBLK
5
21
100
AcDbEntity
100
AcDbBlockEnd
0
BLOCK
5
1C
100
AcDbEntity
100
AcDbBlockBegin
2
*PAPER_SPACE
0
ENDBLK
5
1D
100
AcDbEntity
100
AcDbBlockEnd
0
ENDSEC
0
SECTION
2
ENTITIES
0
CIRCLE
5
100
100
AcDbEntity
8
0
100
AcDbCircle
10
-45.000654513559297
20
12.316849502417488
30
0
40
3.0999999999999961
210
0
220
0
230
1
0
CIRCLE
5
101
100
AcDbEntity
8
0
100
AcDbCircle
10
25.403664422656576
20
10.091809725881982
30
0
40
3.1000000000000005
210
0
220
0
230
1
0
LWPOLYLINE
5
102
100
AcDbEntity
8
0
100
AcDbPolyline
90
6
70
1
43
0.0
10
56.396799730736042
20
21.314990878400732
10
95.888974488712293
20
21.314990878407883
42
-0.87146548962596371
10
96.972444389811869
20
13.464524286757893
42
0.022819638222666739
10
62.570010066259023
20
2.0667687771864642
42
-0.37965305259983056
10
55.117082427682924
20
4.873185139344244
10
51.088688219475536
20
12.517858027781696
42
-0.56454761398390918
0
LINE
5
103
100
AcDbEntity
8
0
100
AcDbLine
10
-35.913254497362608
20
4.0351810767197538
30
0
11
-37.693220548725826
21
16.679892064808218
31
0
0
SPLINE
5
104
100
AcDbEntity
8
0
100
AcDbSpline
70
0
71
3
72
16
73
12
74
0
42
0.000000001
43
0.0000000001
44
0.0000000001
40
0
40
0
40
0
40
0
40
0.23438668403215626
40
0.23438668403215626
40
0.46877336806431247
40
0.46877336806431247
40
0.70316005209646903
40
0.70316005209646903
40
0.9014856372476252
40
0.9014856372476252
40
1.0998112223987813
40
1.0998112223987813
40
1.0998112223987813
40
1.0998112223987813
10
-31.050181498780951
20
23.475088717490294
30
0
10
-31.826110367926439
20
23.566449586452887
30
0
10
-32.612465743441021
20
23.505380833476153
30
0
10
-34.117506334919703
20
23.08525883761601
30
0
10
-34.821802542518761
20
22.730222189997207
30
0
10
-36.054661338150886
20
21.77016549196501
30
0
10
-36.571437124137759
20
21.174324106856126
30
0
10
-37.287805687577048
20
19.922421753456817
30
0
10
-37.51906353617138
20
19.298296375339625
30
0
10
-37.768700208337933
20
17.999906394658169
30
0
10
-37.785371429704732
20
17.334523233972124
30
0
10
-37.693220548725826
20
16.679892064808218
30
0
0
SPLINE
5
105
100
AcDbEntity
8
0
100
AcDbSpline
70
0
71
3
72
14
73
10
74
0
42
0.000000001
43
0.0000000001
44
0.0000000001
40
-0.20308810658098647
40
-0.20308810658098647
40
-0.20308810658098647
40
-0.20308810658098647
40
-0.14922015684128903
40
-0.14922015684128903
40
-0.14922015684128903
40
-0.10368822245804357
40
-0.10368822245804357
40
-0.10368822245804357
40
-0.097758982729525407
40
-0.097758982729525407
40
-0.097758982729525407
40
-0.097758982729525407
10
-31.050181498612609
20
23.475088717470474
30
0
10
-23.90991660856599
20
22.634366286691261
30
0
10
-16.185107947616007
20
21.561789584277975
30
0
10
-8.906980961971021
20
20.846325800705607
30
0
10
-2.7551373899647302
20
20.241579375333512
30
0
10
3.0781238781479114
20
19.902409919040537
30
0
10
8.2864100808839964
20
19.882973880704114
30
0
10
8.9646412583873882
20
19.880442889384938
30
0
10
9.632319996591205
20
19.883091533938934
30
0
10
10.289510883892781
20
19.890315099167115
30
0
0
SPLINE
5
106
100
AcDbEntity
8
0
100
AcDbSpline
70
0
71
3
72
14
73
10
74
0
42
0.000000001
43
0.0000000001
44
0.0000000001
40
0
40
0
40
0
40
0
40
0.23438668403215637
40
0.23438668403215637
40
0.4687733680643128
40
0.4687733680643128
40
0.6463354727764008
40
0.6463354727764008
40
0.82389757748848924
40
0.82389757748848924
40
0.82389757748848924
40
0.82389757748848924
10
16.220940339437451
20
15.154045161488082
30
0
10
16.056431142561689
20
15.917818126769186
30
0
10
15.744312899367795
20
16.642156701923355
30
0
10
14.859994720344329
20
17.930423379150014
30
0
10
14.296249348296868
20
18.48203494962863
30
0
10
13.147507566936731
20
19.234343347723964
30
0
10
12.607098562231776
20
19.483567810064425
30
0
10
11.470905350286806
20
19.81571658497748
30
0
10
10.88134881595593
20
19.896820332257498
30
0
10
10.289510883892634
20
19.890315099167118
30
0
0
LINE
5
107
100
AcDbEntity
8
0
100
AcDbLine
10
16.220940339437451
20
15.154045161488082
30
0
11
18.168361243297387
21
6.112681720179733
31
0
0
SPLINE
5
108
100
AcDbEntity
8
0
100
AcDbSpline
70
0
71
3
72
18
73
14
74
0
42
0.000000001
43
0.0000000001
44
0.0000000001
40
0
40
0
40
0
40
0
40
0.23438668403215654
40
0.23438668403215654
40
0.46877336806431336
40
0.46877336806431336
40
0.7031600520964697
40
0.7031600520964697
40
0.93754673612862616
40
0.93754673612862616
40
1.0606498098750972
40
1.0606498098750972
40
1.1837528836215681
40
1.1837528836215681
40
1.1837528836215681
40
1.1837528836215681
10
11.200890984864573
20
-1.0486199939439678
30
0
10
11.968889433615061
20
-1.1921149453110509
30
0
10
12.757573153459241
20
-1.1842308319452177
30
0
10
14.287525852005093
20
-0.86659202194827678
30
0
10
15.014167649020019
20
-0.55987412546726745
30
0
10
16.308981162801732
20
0.31483018910552019
30
0
10
16.864773756648876
20
0.87445395719929764
30
0
10
17.730562821208888
20
2.1752456273341805
30
0
10
18.032281876573062
20
2.9039772520225604
30
0
10
18.266494771163572
20
4.0723660558284198
30
0
10
18.305660256896207
20
4.4819201001617444
30
0
10
18.299786995331143
20
5.3025862421544643
30
0
10
18.254763710564642
20
5.7115377726948076
30
0
10
18.168361243297383
20
6.1126817201797312
30
0
0
SPLINE
5
109
100
AcDbEntity
8
0
100
AcDbSpline
70
0
71
3
72
32
73
28
74
0
42
0.000000001
43
0.0000000001
44
0.0000000001
40
-0.9022620927752949
40
-0.9022620927752949
40
-0.9022620927752949
40
-0.9022620927752949
40
-0.89923337276244297
40
-0.89923337276244297
40
-0.89923337276244297
40
-0.86627402384263519
40
-0.86627402384263519
40
-0.86627402384263519
40
-0.83596781924491337
40
-0.83596781924491337
40
-0.83596781924491337
40
-0.80267257872480069
40
-0.80267257872480069
40
-0.80267257872480069
40
-0.76932789168385274
40
-0.76932789168385274
40
-0.76932789168385274
40
-0.7396517045884673
40
-0.7396517045884673
40
-0.7396517045884673
40
-0.70798633713429204
40
-0.70798633713429204
40
-0.70798633713429204
40
-0.68194706999503241
40
-0.68194706999503241
40
-0.68194706999503241
40
-0.67658595648963993
40
-0.67658595648963993
40
-0.67658595648963993
40
-0.67658595648963993
10
11.200890984864778
20
-1.0486199939440053
30
0
10
11.033294396919251
20
-1.0173057845524891
30
0
10
10.86297829896054
20
-0.98574882979482747
30
0
10
10.689846032178696
20
-0.95405618982373874
30
0
10
8.8057739601726812
20
-0.60916832479676686
30
0
10
6.5729280838925073
20
-0.2875199856354243
30
0
10
4.2248471453556524
20
-0.30543718687195853
30
0
10
2.0657807903603245
20
-0.32191209867358789
30
0
10
-0.13231462795178645
20
-0.64823504563629453
30
0
10
-2.021526688224593
20
-1.0572246274662067
30
0
10
-4.0970676797550585
20
-1.5065519740608009
30
0
10
-5.8189868137228764
20
-1.9869180559957544
30
0
10
-7.2242905966564219
20
-2.2344305957984867
30
0
10
-8.6316813860718931
20
-2.4823107146835492
30
0
10
-9.6939135212586223
20
-2.5381919235543684
30
0
10
-10.991153061981098
20
-2.4066485763851722
30
0
10
-12.145673518890376
20
-2.2895773027231194
30
0
10
-13.534562619796166
20
-1.9847116689206197
30
0
10
-15.264773818393934
20
-1.5816740958637798
30
0
10
-17.110960230443027
20
-1.1516211106988381
30
0
10
-19.351004696748795
20
-0.63188099865622915
30
0
10
-21.793841200300598
20
-0.46888096297508897
30
0
10
-23.802650110715852
20
-0.33484173292502317
30
0
10
-25.91260752153287
20
-0.48826863770256068
30
0
10
-27.700139460244365
20
-0.80223990022012859
30
0
10
-28.068166777092234
20
-0.86688210258266096
30
0
10
-28.422246896446794
20
-0.93524648487040241
30
0
10
-28.76152993286107
20
-1.0051220137668655
30
0
0
SPLINE
5
110
100
AcDbEntity
8
0
100
AcDbSpline
70
0
71
3
72
16
73
12
74
0
42
0.000000001
43
0.0000000001
44
0.0000000001
40
0
40
0
40
0
40
0
40
0.2343866840321561
40
0.2343866840321561
40
0.46877336806431241
40
0.46877336806431241
40
0.70316005209646859
40
0.70316005209646859
40
0.84305874079011878
40
0.84305874079011878
40
0.98295742948376885
40
0.98295742948376885
40
0.98295742948376885
40
0.98295742948376885
10
-35.913254497362608
20
4.0351810767197538
30
0
10
-35.804348027192233
20
3.2615197818975128
30
0
10
-35.545369507687454
20
2.5165269660758245
30
0
10
-34.756422618603359
20
1.1677451158092498
30
0
10
-34.233997011292971
20
0.57685117099581662
30
0
10
-32.992053012944673
20
-0.37142346136056992
30
0
10
-32.284408283442758
20
-0.71973812656859004
30
0
10
-31.079590816185963
20
-1.0437216410644754
30
0
10
-30.616673301015428
20
-1.1119062877925932
30
0
10
-29.684429213302131
20
-1.1396869517185484
30
0
10
-29.218272966086364
20
-1.0991884939354162
30
0
10
-28.76152993286107
20
-1.0051220137668566
30
0
0
LINE
5
111
100
AcDbEntity
8
0
100
AcDbLine
10
204.57404156198822
20
28.314990878414974
30
0
11
34.851899669270345
21
28.314990878414974
31
0
0
SPLINE
5
112
100
AcDbEntity
8
0
100
AcDbSpline
70
4
71
5
72
66
73
60
74
0
42
0.000000001
43
0.0000000001
44
0.0000000001
40
0
40
0
40
0
40
0
40
0
40
0
40
0.018181818181818181
40
0.036363636363636362
40
0.054545454545454543
40
0.072727272727272724
40
0.090909090909090912
40
0.1090909090909091
40
0.12727272727272729
40
0.14545454545454548
40
0.16363636363636366
40
0.18181818181818185
40
0.20000000000000004
40
0.21818181818181823
40
0.23636363636363641
40
0.25454545454545457
40
0.27272727272727276
40
0.29090909090909095
40
0.30909090909090914
40
0.32727272727272733
40
0.34545454545454551
40
0.3636363636363637
40
0.38181818181818189
40
0.40000000000000008
40
0.41818181818181827
40
0.43636363636363645
40
0.45454545454545464
40
0.47272727272727283
40
0.49090909090909102
40
0.50909090909090915
40
0.52727272727272734
40
0.54545454545454553
40
0.56363636363636371
40
0.5818181818181819
40
0.60000000000000009
40
0.61818181818181828
40
0.63636363636363646
40
0.65454545454545465
40
0.67272727272727284
40
0.69090909090909103
40
0.70909090909090922
40
0.7272727272727274
40
0.74545454545454559
40
0.76363636363636378
40
0.78181818181818197
40
0.80000000000000016
40
0.81818181818181834
40
0.83636363636363653
40
0.85454545454545472
40
0.87272727272727291
40
0.89090909090909109
40
0.90909090909090928
40
0.92727272727272747
40
0.94545454545454566
40
0.96363636363636385
40
0.98181818181818203
40
1
40
1
40
1
40
1
40
1
40
1
41
1
41
1
41
1
41
1
41
1
41
1
41
1
41
1
41
1
41
1
41
1
41
1
41
1
41
1
41
1
41
1
41
1
41
1
41
1
41
1
41
1
41
1
41
1
41
1
41
1
41
1
41
1
41
1
41
1
41
1
41
1
41
1
41
1
41
1
41
1
41
1
41
1
41
1
41
1
41
1
41
1
41
1
41
1
41
1
41
1
41
1
41
1
41
1
41
1
41
1
41
1
41
1
41
1
41
1
41
1
41
1
41
1
41
1
41
1
41
1
10
34.851899669270345
20
28.314990878414974
30
0
10
34.096379468618871
20
28.30553112520327
30
0
10
32.565046000738462
20
28.268213653745793
30
0
10
30.207165911185783
20
28.157044097620751
30
0
10
26.92894631722034
20
27.910996988729757
30
0
10
22.534124802878491
20
27.515948572099941
30
0
10
17.749294617614119
20
27.134351045737123
30
0
10
12.48295893960071
20
26.874055613782566
30
0
10
6.6670529803824756
20
26.83088766209428
30
0
10
0.27753854951546258
20
27.07075797034792
30
0
10
-6.6415480679707581
20
27.609177120741283
30
0
10
-13.96386823813857
20
28.39818129332911
30
0
10
-21.505142163225848
20
29.342383463750735
30
0
10
-29.041563701012553
20
30.310517976089564
30
0
10
-36.330396265640537
20
31.148654225834566
30
0
10
-43.129669603253873
20
31.692641696922301
30
0
10
-49.218047575384539
20
31.780842971885967
30
0
10
-54.415145666115066
20
31.266772612359617
30
0
10
-58.600626445179145
20
30.031745237120518
30
0
10
-61.736644452743704
20
27.997741801480522
30
0
10
-63.881009654445421
20
25.139827417302158
30
0
10
-65.150841373020413
20
21.496307276369247
30
0
10
-65.692760152593991
20
17.178993668714988
30
0
10
-65.650302947028337
20
12.384218979308606
30
0
10
-65.133348447228215
20
7.4023082693075608
30
0
10
-64.184486097050765
20
2.6317177910168175
30
0
10
-62.804167320620948
20
-1.5024804704268595
30
0
10
-60.977587831475049
20
-4.6310731477259601
30
0
10
-58.702542920720909
20
-6.5295642130572764
30
0
10
-56.013158755440486
20
-7.1894945450297323
30
0
10
-53.014906990597822
20
-6.9360765282302932
30
0
10
-49.866677029096074
20
-6.3293517699094428
30
0
10
-46.732339348857934
20
-5.9365603682659138
30
0
10
-43.74596883475148
20
-6.1685221001761121
30
0
10
-40.961714300971998
20
-7.0335499399826249
30
0
10
-38.346371303177385
20
-8.1369228509157185
30
0
10
-35.821941275348671
20
-8.9831343537085004
30
0
10
-33.293030140069092
20
-9.1718882093089054
30
0
10
-30.685660078302153
20
-8.7033866685670507
30
0
10
-27.958089828580917
20
-7.9465230578715094
30
0
10
-25.094027678272283
20
-7.3640117312301721
30
0
10
-22.100654586416525
20
-7.3290807202942361
30
0
10
-19.005399659711419
20
-7.8540221822652825
30
0
10
-15.849185078863332
20
-8.6580597949160971
30
0
10
-12.677339219872517
20
-9.3590208256657856
30
0
10
-9.5318673941894208
20
-9.6118153745370734
30
0
10
-6.4419016055329736
20
-9.2990404800289408
30
0
10
-3.4190668600414393
20
-8.599806544897632
30
0
10
-0.46261434569097681
20
-7.8237410472878395
30
0
10
2.4375426875758981
20
-7.2967772763777585
30
0
10
5.2969306983753315
20
-7.2208019394904897
30
0
10
8.1331402403179425
20
-7.560197308454299
30
0
10
10.963995111484143
20
-8.1350257622338198
30
0
10
13.805705288847728
20
-8.6987852866865225
30
0
10
16.670935191973928
20
-9.0245863219577558
30
0
10
19.567140969937739
20
-8.9797764539859095
30
0
10
21.91185386813671
20
-8.5941693866460298
30
0
10
23.686530879253421
20
-8.0986114627163381
30
0
10
24.876819961401928
20
-7.6765591493722249
30
0
10
25.473757238608993
20
-7.4426139091475427
30
0
0
ARC
5
113
100
AcDbEntity
8
0
100
AcDbCircle
10
31.413233040931718
20
-22.597830694484557
30
0
40
16.277529561236797
210
0
220
-0
230
1
100
AcDbArc
50
62.777588797810544
51
111.40069244909557
0
ARC
5
114
100
AcDbEntity
8
0
100
AcDbCircle
10
47.288761357760897
20
8.2629088950053013
30
0
40
18.427191260990707
210
0
220
0
230
1
100
AcDbArc
50
242.77758879781052
51
292.63542850292731
0
ARC
5
115
100
AcDbEntity
8
0
100
AcDbCircle
10
204.5740415635417
20
-368.93313595781683
30
0
40
390.2481268362439
210
0
220
0
230
1
100
AcDbArc
50
90.000000000243816
51
112.63542850287973
0
ARC
5
116
100
AcDbEntity
8
0
100
AcDbCircle
10
204.57404156198822
20
-1.5937133086906163
30
0
40
22.90870418707382
210
0
220
0
230
1
100
AcDbArc
50
-14.999999999989296
51
90.000000000267846
0
LINE
5
117
100
AcDbEntity
8
0
100
AcDbLine
10
226.70215058310046
20
-7.5229222509210611
30
0
11
220.22793891867136
21
-31.685009121585026
31
0
0
LINE
5
118
100
AcDbEntity
8
0
100
AcDbLine
10
220.22793891867136
20
-31.685009121585026
30
0
11
229.26070088354578
21
-18.478601158557488
31
0
0
ARC
5
119
100
AcDbEntity
8
0
100
AcDbCircle
10
204.57404156198822
20
-1.5937133086906163
30
0
40
29.908704187263382
210
-0
220
0
230
1
100
AcDbArc
50
-34.370883325418177
51
90
0
ENDSEC
0
SECTION
2
OBJECTS
0
DICTIONARY
5
C
100
AcDbDictionary
3
ACAD_GROUP
350
D
3
ACAD_MLINESTYLE
350
17
0
DICTIONARY
5
D
100
AcDbDictionary
0
DICTIONARY
5
1A
330
C
100
AcDbDictionary
0
DICTIONARY
5
17
100
AcDbDictionary
0
ENDSEC
0
EOF
